<?xml version="1.0" encoding="UTF-8" standalone="no"?>
<svg
   xmlns:svg="http://www.w3.org/2000/svg"
   xmlns="http://www.w3.org/2000/svg"
   version="1.1"
   width="737.03125"
   height="279.06665"
   id="svg3478">
  <defs
     id="defs3480" />
  <g
     transform="translate(-22.912946,-384.25)"
     id="layer1">
    <path
       d="m 549.10045,386.91041 0,106.0625 159.75,-106.0625 -159.75,0 z m -208.125,0.71875 0,106.0625 95.15625,0 0,-106.0625 -95.15625,0 z m 104.25,0 0,106.0625 95.15625,0 0,-106.0625 -95.15625,0 z m 123.09375,156.4375 c -42.85658,0 -66,23.73711 -66,58.78125 0,35.06011 22.76798,59.46875 66,59.46875 42.65687,0 66.03125,-24.88793 66.03125,-59.46875 0,-34.55686 -23.78178,-58.78125 -66.03125,-58.78125 z m -544.406254,1.90625 0,0.78125 c 0,0 6.917566,2.15413 7.46875,9 l 0,94.84375 c -0.551184,6.86185 -7.46875,9 -7.46875,9 l 0,0.75 60.21875,0 c 19.003884,0 61.343754,1.6069 61.343754,-33.09375 0,-14.07517 -9.07212,-29.61594 -29.59375,-31.09375 l 0,-0.3125 c 14.40269,-3.09142 19.0625,-16.4653 19.0625,-24.4375 0,-25.0669 -31.36927,-25.375 -50.812504,-25.375 l -60.21875,-0.0625 z m 297.281254,0 -45.28125,0.0312 0,0.75 c 0,0 7.18047,2.27281 7.5,9.40625 l 0,94.03125 c -0.31953,7.13344 -7.5,9.375 -7.5,9.375 l 0,0.75 94.96875,0.0312 7.5,-27.1875 -1.03125,-0.53125 c -6.11894,6.67812 -23.61497,8.39641 -31.53125,8.84375 l -32.15625,0 0,-85.03125 c 0.0959,-7.40504 7.53125,-9.6875 7.53125,-9.6875 l 0,-0.78125 z m 115.125,0 c -4.15819,0.009 -8.32499,0.0625 -12.375,0.0625 l -40.15625,-0.0312 0,0.75 c 0,0 7.53125,2.32687 7.53125,9.84375 l 0,93.125 c 0,7.51688 -7.53125,9.84375 -7.53125,9.84375 l 0,0.75 45.28125,0.0312 0,-0.75 c 0,0 -7.10858,-2.2204 -7.5,-9.25 l 0,-41.0625 9.71875,0 c 4.23373,0 11.34375,-0.0625 11.34375,-0.0625 l 23.9375,40.8125 c 1.45385,7.49291 -3.53125,9.53125 -3.53125,9.53125 l 0,0.75 47.34375,0 0,-0.75 c 0,0 -5.03028,-0.84107 -11.46875,-9.84375 l -31,-44.53125 0,-0.34375 c 22.30299,-3.61066 27.09375,-18.50546 27.09375,-29.625 0,-27.81184 -29.58017,-29.31389 -58.6875,-29.25 z m 204.9375,0 0,0.78125 c 0,0 6.6946,2.08198 7.4375,8.65625 l 0,95.5 c -0.7429,6.59025 -7.4375,8.65625 -7.4375,8.65625 l 0,0.75 36.3125,0 0,-0.75 c 0,0 -7.09331,-2.22839 -7.46875,-9.25 l 0,-64.5 0.34375,0 59.6875,74.53125 21.375,0 0,-105.25 c 0.92663,-6.32664 7.4375,-8.34375 7.4375,-8.34375 l 0,-0.75 -36.3125,0 0,0.75 c 0,0 7.5,2.35812 7.5,9.875 l 0,58.625 -0.34375,0 -56.375,-69.21875 -32.15625,-0.0625 z m -490.46875,0.0312 0,0.75 c 0,0 7.50729,2.32758 7.53125,9.8125 l 0,93.25 c -0.024,7.48492 -7.53125,9.78125 -7.53125,9.78125 l 0,0.78125 109.46875,-0.0312 7.5,-27.1875 -1,-0.53125 c -7.70859,8.45149 -33.64885,9.24131 -35.40625,9.28125 l -42.78125,0 0,-35.21875 53.78125,0 9.03125,-18.59375 -1.0625,-0.5 c -4.04202,3.05947 -10.21759,2.36631 -17.375,2.40625 l -44.375,0 0,-25.5 36.0625,0 c 1.74941,0.0399 27.70565,0.79052 35.40625,9.25 l 1.03125,-0.5 -7.5,-27.21875 -102.78125,-0.0312 z m 417.53125,16.06255 c 26.8243,0 35.1875,20.65104 35.1875,40.78125 0,20.64145 -7.58834,41.46875 -35.1875,41.46875 -27.59916,0 -35.15625,-20.8273 -35.15625,-41.46875 0,-20.13021 8.32396,-40.78125 35.15625,-40.78125 z m -489.656254,1.9375 c 12.80533,-0.007 26.937504,0.76895 26.937504,13.40625 0,15.76866 -18.907124,13.28125 -31.656254,13.28125 l -12.3125,0 0,-26.65625 11.65625,0 c 1.72944,0 3.545668,-0.0303 5.375,-0.0312 z m 364.718754,0.75 c 11.99612,-0.061 23.21875,1.19684 23.21875,12.40625 0,16.6234 -20.18781,13.25 -35.09375,13.25 l -9.9375,0 0,-25.46875 9.9375,0 c 3.78041,0 7.87629,-0.16716 11.875,-0.1875 z M 85.194196,606.66041 c 14.19941,-0.18893 30.437504,0.99276 30.437504,18.90625 0,18.45269 -25.691514,16.78125 -39.718754,16.78125 l -14.28125,0 0,-35.53125 14.28125,0 c 2.833806,0 6.00446,-0.11265 9.28125,-0.15625 z"
       id="path332"
       style="fill:#ed192d;fill-opacity:1;fill-rule:nonzero;stroke:none" />
    <path
       d="m 236.72545,387.62916 0,106.0625 95.15625,0 0,-106.0625 -95.15625,0 z m -9.09375,0.6875 -159.718754,106.09375 159.718754,0 0,-106.09375 z"
       id="path344"
       style="fill:#fddf12;fill-opacity:1;fill-rule:nonzero;stroke:none" />
    <path
       d="m 549.10045,386.91041 0,106.0625 159.75,-106.0625 -159.75,0 z m -312.375,0.71875 0,106.0625 95.15625,0 0,-106.0625 -95.15625,0 z m 104.25,0 0,106.0625 95.15625,0 0,-106.0625 -95.15625,0 z m 104.25,0 0,106.0625 95.15625,0 0,-106.0625 -95.15625,0 z m -217.59375,0.6875 -159.718754,106.09375 159.718754,0 0,-106.09375 z"
       id="path346"
       style="fill:none;stroke:#000000;stroke-width:3.29112935;stroke-linecap:butt;stroke-linejoin:miter;stroke-miterlimit:4;stroke-opacity:1;stroke-dasharray:none" />
  </g>
</svg>
