<?xml version="1.0" encoding="UTF-8" standalone="no"?>
<!-- Created with Inkscape (http://www.inkscape.org/) -->

<svg
   xmlns:dc="http://purl.org/dc/elements/1.1/"
   xmlns:cc="http://creativecommons.org/ns#"
   xmlns:rdf="http://www.w3.org/1999/02/22-rdf-syntax-ns#"
   xmlns:svg="http://www.w3.org/2000/svg"
   xmlns="http://www.w3.org/2000/svg"
   xmlns:sodipodi="http://sodipodi.sourceforge.net/DTD/sodipodi-0.dtd"
   xmlns:inkscape="http://www.inkscape.org/namespaces/inkscape"
   width="89.434067"
   height="61.000011"
   viewBox="0 0 23.662763 16.139586"
   version="1.1"
   id="svg7997"
   inkscape:version="0.92.4 (5da689c313, 2019-01-14)"
   sodipodi:docname="education first.svg">
  <defs
     id="defs7991" />
  <sodipodi:namedview
     id="base"
     pagecolor="#ffffff"
     bordercolor="#666666"
     borderopacity="1.0"
     inkscape:pageopacity="0.0"
     inkscape:pageshadow="2"
     inkscape:zoom="13.816665"
     inkscape:cx="44.217033"
     inkscape:cy="30.000004"
     inkscape:document-units="mm"
     inkscape:current-layer="layer1"
     showgrid="false"
     fit-margin-top="0"
     fit-margin-left="0"
     fit-margin-right="0"
     fit-margin-bottom="0"
     units="px"
     inkscape:window-width="1920"
     inkscape:window-height="1001"
     inkscape:window-x="-9"
     inkscape:window-y="-9"
     inkscape:window-maximized="1" />
  <metadata
     id="metadata7994">
    <rdf:RDF>
      <cc:Work
         rdf:about="">
        <dc:format>image/svg+xml</dc:format>
        <dc:type
           rdf:resource="http://purl.org/dc/dcmitype/StillImage" />
        <dc:title></dc:title>
      </cc:Work>
    </rdf:RDF>
  </metadata>
  <g
     inkscape:label="Layer 1"
     inkscape:groupmode="layer"
     id="layer1"
     transform="translate(-227.18186,-77.131249)">
    <path
       id="path7971"
       d="m 230.57118,91.801339 -0.17409,0.838729 c -0.01,0.03969 -0.0172,0.08811 -0.0164,0.130969 0.002,0.17145 0.13362,0.233627 0.27623,0.233627 0.22939,0 0.43762,-0.20664 0.50535,-0.537369 l 0.13759,-0.665956 h 0.15901 l -0.26829,1.299104 h -0.14684 l 0.0437,-0.236008 h -0.005 c -0.0976,0.152929 -0.26802,0.274108 -0.46302,0.274108 -0.22754,0 -0.39529,-0.101071 -0.39793,-0.350308 0,-0.04022 0.007,-0.09313 0.019,-0.1524 l 0.17197,-0.834496 z m 4.16058,-0.392906 -0.0802,0.392906 h 0.26088 l -0.0233,0.13335 h -0.26643 l -0.17066,0.833437 c -0.0132,0.06085 -0.0177,0.08308 -0.0169,0.123825 5.3e-4,0.04524 0.0241,0.08996 0.0839,0.08996 0.0635,0 0.12436,-0.0053 0.18733,-0.01482 l -0.027,0.138376 c -0.0527,0.0061 -0.10848,0.01058 -0.1614,0.01058 -0.11906,0 -0.2405,-0.0299 -0.24209,-0.186531 0,-0.02778 0.004,-0.07541 0.0159,-0.133614 l 0.17197,-0.861212 h -0.236 l 0.0302,-0.13335 h 0.23521 l 0.0788,-0.392906 z m -5.83883,-0.106098 -0.0312,0.14605 h -1.03717 l -0.13308,0.649287 h 0.96917 l -0.0318,0.146844 h -0.96573 l -0.14552,0.710671 h 1.06256 l -0.0312,0.145256 h -1.23481 l 0.36751,-1.798108 z m 8.49763,-14.038792 c -0.0722,0.03281 -0.14367,0.06667 -0.21538,0.101864 -0.96149,0.467519 -1.84414,1.099079 -2.62387,1.875367 -0.81783,0.814917 -1.47373,1.707885 -1.94813,2.655623 -0.45931,0.917311 -0.73765,1.859492 -0.82708,2.800614 -0.18124,1.90606 0.43497,3.668713 1.73328,4.961203 0.26988,0.268816 0.567,0.506941 0.88953,0.711729 h -2.29764 c -0.51541,-0.580496 -0.92101,-1.235869 -1.20809,-1.954213 -0.33231,-0.830527 -0.50059,-1.728258 -0.50059,-2.669646 0,-1.224226 0.28072,-2.467504 0.83344,-3.694641 0.57441,-1.277938 1.41711,-2.474384 2.50375,-3.556265 0.45455,-0.453231 0.9361,-0.863864 1.43986,-1.231635 z m -9.11226,11.094508 c 0.0923,0.357717 0.20744,0.707232 0.34476,1.049073 0.13308,0.331523 0.28575,0.652727 0.45852,0.963084 h -1.21735 z m 6.17644,-11.094508 c -0.35692,0.286544 -0.70194,0.594783 -1.0332,0.925248 -1.12395,1.119716 -1.99681,2.359025 -2.59345,3.684587 -0.57785,1.283494 -0.87127,2.587361 -0.87127,3.872971 0,0.996422 0.17886,1.948921 0.53129,2.829454 0.25955,0.648759 0.60933,1.249627 1.04457,1.794405 h -1.94839 c -0.21431,-0.359305 -0.40032,-0.734219 -0.55668,-1.12395 -0.25506,-0.634471 -0.42916,-1.300692 -0.52256,-1.991784 l 1.3208,-6.421966 c 0.64559,-1.192742 1.49569,-2.316428 2.53392,-3.350419 0.0743,-0.07382 0.14896,-0.146315 0.2241,-0.218546 z m 6.67808,2.519362 c 0.55351,0.138906 1.04537,0.411427 1.44039,0.805656 1.5166,1.510772 1.22952,4.072997 -0.66701,5.961063 -0.73052,0.728134 -1.59279,1.233752 -2.46645,1.464998 l 0.16563,-0.804863 c 0.67839,-0.202935 1.3253,-0.592137 1.86743,-1.131887 0.86307,-0.858838 1.338,-1.862667 1.338,-2.824956 0,-0.769144 -0.29184,-1.465792 -0.84455,-2.015596 -0.28046,-0.279136 -0.62257,-0.489479 -1.00515,-0.620977 z m -0.25929,1.259946 c 0.29713,0.110596 0.56145,0.278607 0.78502,0.500857 0.46831,0.467253 0.71623,1.057539 0.71623,1.709208 0,0.847195 -0.42969,1.740958 -1.21021,2.518305 -0.43815,0.436562 -0.94191,0.753797 -1.45785,0.945356 l 0.14076,-0.685272 c 0.3683,-0.15769 0.71755,-0.390259 1.0115,-0.683153 0.48471,-0.4826 0.77787,-1.083469 0.82682,-1.690953 0.0489,-0.612246 -0.14922,-1.173956 -0.56012,-1.583266 -0.11854,-0.118269 -0.254,-0.217753 -0.40217,-0.298715 z m -0.24289,1.183482 c 0.0667,0.04577 0.12912,0.09737 0.18706,0.154781 0.31856,0.3175 0.47255,0.758295 0.43392,1.240895 -0.0405,0.505355 -0.28919,1.009121 -0.70062,1.418962 -0.17859,0.178063 -0.37941,0.32967 -0.59266,0.451378 z m -0.82761,-4.96279 -0.14182,0.68871 c -1.52003,0.220398 -3.00117,0.986631 -4.19285,2.172229 -0.0616,0.06165 -0.12171,0.123561 -0.18071,0.185209 h -1.12342 c 0.21616,-0.261144 0.44767,-0.515938 0.69559,-0.76253 1.10754,-1.103047 2.40241,-1.870339 3.71819,-2.283618 z m -7.83934,0 c -0.71517,0.723635 -1.34197,1.488281 -1.87458,2.289439 l 0.47096,-2.289439 z m -2.66436,15.741121 c -0.2405,0 -0.35401,-0.166159 -0.35613,-0.387615 -0.003,-0.3175 0.18257,-0.720196 0.54954,-0.720196 0.23284,0 0.36592,0.148961 0.3683,0.37518 0.003,0.321204 -0.19579,0.732631 -0.56171,0.732631 z m 0.93186,-1.702329 -0.36962,1.798108 h -0.15425 l 0.0561,-0.234685 h -0.006 c -0.11006,0.171714 -0.24288,0.272785 -0.47281,0.272785 -0.33469,0 -0.49768,-0.213519 -0.50085,-0.531283 -0.004,-0.398463 0.26723,-0.844021 0.70564,-0.844021 0.20479,0 0.36698,0.07779 0.4273,0.282575 h 0.005 l 0.14896,-0.743479 z m 11.43133,0.460375 c 0.27358,0 0.47281,0.118798 0.47016,0.418835 h -0.16007 c 0.0122,-0.198967 -0.12885,-0.284956 -0.3085,-0.284956 -0.13838,0 -0.32306,0.04313 -0.32121,0.221456 0.002,0.120915 0.13071,0.18124 0.27834,0.239977 0.17965,0.06985 0.42572,0.142875 0.42863,0.382323 0.002,0.291835 -0.27543,0.398198 -0.52282,0.398198 -0.25082,0 -0.50721,-0.13626 -0.49556,-0.460375 h 0.1606 c -0.002,0.250825 0.18706,0.327025 0.37094,0.327025 0.14156,0 0.32835,-0.07329 0.32703,-0.238919 -0.002,-0.169333 -0.18203,-0.22225 -0.35454,-0.287337 -0.17463,-0.06826 -0.35084,-0.146315 -0.35269,-0.360892 -0.003,-0.251354 0.26987,-0.355335 0.47942,-0.355335 z m -9.40488,5.29e-4 c 0.2831,0 0.499,0.141023 0.49212,0.442912 h -0.15928 c 0.0106,-0.193146 -0.12964,-0.309298 -0.31697,-0.309298 -0.38179,0 -0.56038,0.366977 -0.55694,0.705115 0.002,0.231246 0.11985,0.402696 0.3675,0.402696 0.21035,0 0.36063,-0.136261 0.4273,-0.324909 h 0.15875 c -0.0931,0.297392 -0.28919,0.458788 -0.60483,0.458788 -0.32385,0 -0.50562,-0.216165 -0.5088,-0.536575 -0.004,-0.404813 0.25321,-0.838729 0.70115,-0.838729 z m 10.49364,-0.354542 -0.0802,0.392642 h 0.26061 l -0.0238,0.132821 h -0.26564 l -0.17118,0.833437 c -0.0127,0.06165 -0.0164,0.0844 -0.0159,0.12409 0,0.04551 0.023,0.09049 0.0839,0.09049 0.063,0 0.12329,-0.0045 0.18679,-0.01508 l -0.0265,0.139171 c -0.0532,0.0045 -0.10901,0.0098 -0.16219,0.0098 -0.118,0 -0.2413,-0.03069 -0.24262,-0.18706 0,-0.02699 0.005,-0.07567 0.0172,-0.133085 l 0.17118,-0.861748 h -0.23547 l 0.0291,-0.132821 h 0.23547 l 0.0794,-0.392906 h 0.15981 z m -7.40384,0.392642 -0.26908,1.299104 h -0.15822 l 0.26723,-1.299104 z m 4.82971,0 -0.26882,1.299104 h -0.16007 l 0.26908,-1.299104 z m 0.83343,-0.01773 c 0.0281,0 0.0582,0 0.086,0.0021 l -0.0344,0.15875 c -0.0304,0 -0.0601,-0.0024 -0.0908,-0.0024 -0.28522,0.0053 -0.43497,0.234156 -0.48498,0.478896 l -0.14103,0.679488 h -0.15981 l 0.26908,-1.299104 h 0.14447 l -0.0635,0.299244 h 0.005 c 0.099,-0.186532 0.23706,-0.319353 0.4699,-0.316971 z m -0.73025,-0.481542 -0.0529,0.254529 h -0.15954 l 0.0532,-0.254264 h 0.15928 z m -4.82917,0 -0.0534,0.254529 h -0.15875 l 0.0524,-0.254264 h 0.15981 z m -1.42161,-10.825688 -0.34792,1.704446 h 0.25532 c -0.48842,0.937683 -0.74613,1.926167 -0.74613,2.905654 0,0.06244 0.002,0.123825 0.004,0.185738 h -0.15319 l -0.39952,1.988343 h 1.03532 c 0.22463,0.464608 0.5244,0.889 0.8927,1.255183 0.71596,0.712523 1.61766,1.159933 2.64187,1.317096 l -0.11245,0.537104 h -1.778 c -0.56965,-0.249502 -1.07474,-0.591079 -1.50363,-1.017852 -1.20518,-1.200415 -1.77641,-2.839508 -1.60814,-4.614333 0.13918,-1.463146 0.77629,-2.942166 1.82007,-4.261379 z m 9.63692,8.446558 -0.29845,1.447271 h -1.8415 c 0.76994,-0.379148 1.49543,-0.866511 2.13995,-1.447271 z m 0.51859,-2.517775 -0.36328,1.762125 c -0.045,0.0463 -0.0905,0.09366 -0.13705,0.139171 -0.92737,0.924189 -2.06269,1.631421 -3.26522,2.06375 h -1.46421 l 0.11536,-0.561975 c 1.46367,-0.246063 2.9255,-1.003565 4.05606,-2.129367 0.40085,-0.399521 0.75486,-0.826822 1.05834,-1.273704 z m -8.73178,0.855398 c 0.0622,0.0725 0.12647,0.14261 0.19473,0.210608 0.52123,0.518848 1.14829,0.865187 1.84309,1.02235 l -0.19077,0.912812 c -0.94165,-0.139964 -1.76874,-0.546629 -2.42252,-1.197504 -0.28258,-0.281781 -0.5207,-0.600604 -0.71094,-0.948266 z m 5.96476,-8.863807 c 0.85752,0.150019 1.63883,0.525992 2.25584,1.140354 0.82682,0.823384 1.27212,1.836209 1.31286,2.967832 0.002,0.05662 0.003,0.1143 0.003,0.171714 0,0.242624 -0.0177,0.490802 -0.0548,0.74295 -0.20373,1.392502 -0.95514,2.796118 -2.11666,3.952346 -1.02447,1.020234 -2.33442,1.720586 -3.65284,1.979084 l 0.17806,-0.866775 c 1.01972,-0.223309 2.02884,-0.788988 2.87074,-1.627187 2.07222,-2.063487 2.35929,-4.890295 0.66808,-6.575162 -0.45826,-0.455612 -1.025,-0.76782 -1.66159,-0.924718 z m -3.66845,8.863543 -0.001,0.0032 -0.16827,0.805126 c -0.56802,-0.130975 -1.08422,-0.404025 -1.52316,-0.808044 h 1.69253 z m 11.73666,-4.583378 -0.62574,3.091922 h -1.00489 c 0.37439,-0.899319 0.61701,-1.824038 0.7149,-2.748229 0.0116,-0.114564 0.0217,-0.229393 0.0291,-0.343958 h 0.88636 z m -3.0824,0 c -0.008,0.171715 -0.0217,0.343959 -0.0434,0.518054 -0.1061,0.866511 -0.38153,1.736461 -0.80698,2.573602 h -0.97658 c 0.40614,-0.738188 0.67654,-1.513152 0.78952,-2.286 0.0399,-0.272521 0.0587,-0.541338 0.0587,-0.805656 z m 1.75895,0 c -0.006,0.09975 -0.0148,0.198437 -0.0259,0.29845 -0.0992,0.939271 -0.35533,1.880129 -0.75433,2.793206 h -1.34408 c 0.3937,-0.821796 0.65035,-1.672696 0.75512,-2.521479 0.0233,-0.191293 0.0386,-0.381 0.046,-0.570177 z m -12.79869,-0.495829 c -0.49927,0.83132 -0.77152,1.744927 -0.77152,2.63816 0,0.153459 0.008,0.304535 0.0243,0.453497 h -0.98637 c -0.002,-0.06165 -0.004,-0.123562 -0.004,-0.185474 0,-0.979488 0.27887,-1.971145 0.80486,-2.906183 z m 2.67626,0 c -0.0929,0.07382 -0.18177,0.153458 -0.26749,0.238654 -0.57997,0.578115 -0.89959,1.277409 -0.89959,1.969293 0,0.315913 0.0704,0.61648 0.20268,0.88371 h -0.7755 c -0.0601,-0.217753 -0.091,-0.447941 -0.091,-0.689505 0,-0.821795 0.37253,-1.687513 1.02711,-2.402152 z m -1.37477,0 c -0.23019,0.294216 -0.4199,0.604838 -0.56515,0.931333 -0.2167,0.485775 -0.32676,0.980811 -0.32676,1.470819 0,0.236802 0.027,0.468049 0.0788,0.689505 h -0.79798 c -0.0172,-0.147638 -0.0265,-0.29898 -0.0265,-0.453497 0,-0.895085 0.30189,-1.815835 0.85037,-2.63816 z m 6.25845,-4.917546 c 0.69136,0.253735 1.32107,0.643466 1.85394,1.173956 0.5498,0.548481 0.96705,1.176867 1.24195,1.871927 h -0.58129 l -0.20532,0.999067 -0.0196,-0.06509 c -0.23019,-0.751416 -0.64479,-1.428485 -1.2319,-2.013479 -0.51806,-0.515937 -1.1475,-0.890587 -1.86929,-1.113896 -0.19843,-0.06059 -0.40031,-0.109273 -0.60669,-0.145521 l 0.14553,-0.706966 z m 3.39725,0 c 0.80857,0.86651 1.36525,1.903412 1.64703,3.045883 h -1.48299 c -0.29474,-0.814917 -0.76517,-1.54649 -1.39938,-2.178579 -0.34105,-0.339725 -0.72284,-0.629444 -1.14115,-0.867304 z m -6.75322,1.144058 -0.1868,0.909108 c -0.80169,0.144463 -1.58618,0.48604 -2.2905,0.992717 h -1.18877 c 1.09061,-1.038754 2.39236,-1.681956 3.66607,-1.901825 z m -0.28152,1.370013 -0.10901,0.531812 h -1.27952 c 0.4445,-0.24765 0.91281,-0.427037 1.38853,-0.531812 z m 9.67052,-2.514071 c 0.20294,0.349779 0.38021,0.714904 0.53128,1.095375 0.24633,0.620977 0.4199,1.274233 0.51753,1.950508 h -1.58909 c -0.26061,-1.126067 -0.77179,-2.160058 -1.51474,-3.045883 z m 1.75525,0 -0.43895,2.136246 c -0.0982,-0.410898 -0.22516,-0.811213 -0.3802,-1.20068 -0.12753,-0.321733 -0.27332,-0.633941 -0.43657,-0.935566 z m -16.94498,15.36065 c -0.0482,0.227012 -0.20981,0.380471 -0.46461,0.380471 -0.1516,0 -0.29077,-0.06747 -0.29263,-0.233627 -0.003,-0.272257 0.3183,-0.281252 0.51303,-0.297657 0.0802,-0.0061 0.23654,-0.01005 0.28681,-0.07276 l 0.005,0.0053 z m -0.19553,-0.860954 c 0.17675,0 0.45324,0.06085 0.45535,0.289719 0.002,0.12647 -0.0521,0.322791 -0.077,0.438414 -0.0553,0.2921 -0.0823,0.359833 -0.0815,0.43815 8e-4,0.04577 0.0458,0.05265 0.0841,0.05265 0.023,0 0.0405,-0.0024 0.0632,-0.0053 l -0.0214,0.12647 c -0.0357,0.0082 -0.0892,0.0127 -0.13203,0.0127 -0.0878,0 -0.13679,-0.05556 -0.13891,-0.140758 -7.9e-4,-0.02302 10e-4,-0.04868 0.003,-0.07091 l -0.004,-0.005 c -0.091,0.150798 -0.26908,0.239169 -0.45164,0.239169 -0.23733,0 -0.41804,-0.106363 -0.42069,-0.360627 -0.002,-0.274638 0.21616,-0.362215 0.4482,-0.402167 0.16722,-0.02593 0.31433,-0.01323 0.41593,-0.03784 0.10213,-0.02461 0.15478,-0.08387 0.15319,-0.253736 -0.002,-0.154516 -0.15478,-0.187325 -0.27728,-0.187325 -0.20241,0 -0.3765,0.07514 -0.40746,0.2921 h -0.15901 c 0.0405,-0.294745 0.2667,-0.425714 0.54768,-0.425714 z m 6.35318,-0.460904 -0.0278,0.146314 h -0.98425 l -0.13309,0.649023 h 0.87233 l -0.0265,0.146844 h -0.87683 l -0.17647,0.855927 h -0.17172 l 0.36936,-1.798108 z m -3.93965,1.702329 c -0.26537,0 -0.39343,-0.17145 -0.39608,-0.422804 -0.003,-0.304271 0.18653,-0.685007 0.53499,-0.685007 0.25559,0 0.38629,0.166688 0.38867,0.408252 0.003,0.302155 -0.17886,0.699559 -0.52758,0.699559 m 0.16537,-1.241425 c 0.30347,0 0.51805,0.189441 0.52123,0.508794 0.004,0.438414 -0.23284,0.86651 -0.71623,0.86651 -0.33523,0 -0.52255,-0.216165 -0.52599,-0.541867 -0.004,-0.425714 0.25506,-0.833437 0.72099,-0.833437 z m 1.44462,0 c 0.22754,0 0.39555,0.101071 0.39767,0.34925 5.3e-4,0.04128 -0.005,0.09366 -0.018,0.155046 l -0.17171,0.832908 h -0.15955 l 0.17463,-0.838465 c 0.009,-0.04048 0.0161,-0.08784 0.0161,-0.130704 -0.002,-0.171714 -0.13362,-0.234421 -0.27517,-0.234421 -0.23045,0 -0.43815,0.206905 -0.50588,0.53684 l -0.13706,0.66675 h -0.16007 l 0.26829,-1.299104 h 0.14631 l -0.0421,0.236537 h 0.004 c 0.0968,-0.154252 0.26829,-0.274637 0.46276,-0.274637 z m 1.05675,-9.475259 -0.60405,2.984236 h -0.46672 c -0.17886,-0.249238 -0.27279,-0.550333 -0.27279,-0.883444 0,-0.576526 0.27438,-1.166548 0.77259,-1.662377 0.17462,-0.174625 0.36803,-0.321734 0.57097,-0.438415 z"
       inkscape:connector-curvature="0"
       style="opacity:0.9;fill:#191919;fill-rule:evenodd;stroke-width:0.26458332" />
  </g>
</svg>
